<svg xmlns="http://www.w3.org/2000/svg" viewBox="0 0 512 512" role="img" aria-labelledby="title desc">
  <title id="title">IterNest logo</title>
  <desc id="desc">A green sprout growing from a warm woven nest.</desc>
  <defs>
    <linearGradient id="leaf" x1="0" x2="1" y1="0" y2="1">
      <stop offset="0" stop-color="#98a95a"/>
      <stop offset="1" stop-color="#6f8742"/>
    </linearGradient>
    <linearGradient id="nest" x1="0" x2="1" y1="0" y2="1">
      <stop offset="0" stop-color="#c48925"/>
      <stop offset="1" stop-color="#9c5d0f"/>
    </linearGradient>
  </defs>
  <path d="M88 254c0-104 75-186 168-186s168 82 168 186" fill="none" stroke="#244d2f" stroke-width="14" stroke-linecap="round"/>
  <path d="M256 315c1-68-20-119-66-153" fill="none" stroke="#244d2f" stroke-width="13" stroke-linecap="round"/>
  <path d="M256 315c8-73 36-126 89-159" fill="none" stroke="#244d2f" stroke-width="13" stroke-linecap="round"/>
  <path d="M188 144c52-2 93 30 94 87-55 6-92-26-94-87z" fill="url(#leaf)" stroke="#557038" stroke-width="4"/>
  <path d="M299 133c64-13 107 9 105 76-58 20-103-6-105-76z" fill="url(#leaf)" stroke="#557038" stroke-width="4"/>
  <path d="M119 293c68 66 207 82 293 6" fill="none" stroke="url(#nest)" stroke-width="16" stroke-linecap="round"/>
  <path d="M92 275c46 104 244 136 360 26" fill="none" stroke="url(#nest)" stroke-width="14" stroke-linecap="round"/>
  <path d="M127 331c89 74 246 74 337 2" fill="none" stroke="url(#nest)" stroke-width="14" stroke-linecap="round"/>
  <path d="M147 368c72 45 219 50 305-1" fill="none" stroke="url(#nest)" stroke-width="14" stroke-linecap="round"/>
  <path d="M172 286c47 50 120 76 202 70" fill="none" stroke="#a86712" stroke-width="10" stroke-linecap="round"/>
  <path d="M337 336c38-12 71-31 97-57" fill="none" stroke="#a86712" stroke-width="10" stroke-linecap="round"/>
</svg>
